<mxfile host="app.diagrams.net" modified="2023-08-28T19:07:42.358Z" agent="Mozilla/5.0 (Windows NT 10.0; Win64; x64) AppleWebKit/537.36 (KHTML, like Gecko) Chrome/116.0.0.0 Safari/537.36" etag="ZRnhWgMRjH6bq03b6Dk4" version="21.6.9" type="github">
  <diagram name="Page-1" id="ALmF3WHjba6EGsM9DYqx">
    <mxGraphModel dx="1595" dy="1965" grid="1" gridSize="10" guides="1" tooltips="1" connect="1" arrows="1" fold="1" page="1" pageScale="1" pageWidth="850" pageHeight="1100" math="0" shadow="0">
      <root>
        <mxCell id="0" />
        <mxCell id="1" parent="0" />
        <mxCell id="-Q4MhTV9kitzfaHkZtvb-1" value="" style="rounded=0;whiteSpace=wrap;html=1;" parent="1" vertex="1">
          <mxGeometry x="40" y="-1090" width="750" height="540" as="geometry" />
        </mxCell>
        <mxCell id="-Q4MhTV9kitzfaHkZtvb-2" value="" style="rounded=0;whiteSpace=wrap;html=1;" parent="1" vertex="1">
          <mxGeometry x="40" y="-1090" width="750" height="30" as="geometry" />
        </mxCell>
        <mxCell id="-Q4MhTV9kitzfaHkZtvb-3" value="" style="rounded=0;whiteSpace=wrap;html=1;" parent="1" vertex="1">
          <mxGeometry x="40" y="-1060" width="140" height="510" as="geometry" />
        </mxCell>
        <mxCell id="-Q4MhTV9kitzfaHkZtvb-4" value="" style="rounded=0;whiteSpace=wrap;html=1;" parent="1" vertex="1">
          <mxGeometry x="180" y="-1060" width="610" height="100" as="geometry" />
        </mxCell>
        <mxCell id="-Q4MhTV9kitzfaHkZtvb-5" value="" style="rounded=0;whiteSpace=wrap;html=1;" parent="1" vertex="1">
          <mxGeometry x="180" y="-960" width="610" height="410" as="geometry" />
        </mxCell>
        <mxCell id="-Q4MhTV9kitzfaHkZtvb-7" value="" style="rounded=0;whiteSpace=wrap;html=1;" parent="1" vertex="1">
          <mxGeometry x="40" y="-540" width="750" height="540" as="geometry" />
        </mxCell>
        <mxCell id="-Q4MhTV9kitzfaHkZtvb-8" value="" style="rounded=0;whiteSpace=wrap;html=1;" parent="1" vertex="1">
          <mxGeometry x="40" y="-540" width="750" height="30" as="geometry" />
        </mxCell>
        <mxCell id="-Q4MhTV9kitzfaHkZtvb-9" value="" style="rounded=0;whiteSpace=wrap;html=1;" parent="1" vertex="1">
          <mxGeometry x="40" y="-510" width="140" height="510" as="geometry" />
        </mxCell>
        <mxCell id="-Q4MhTV9kitzfaHkZtvb-11" value="" style="rounded=0;whiteSpace=wrap;html=1;movable=0;resizable=0;rotatable=0;deletable=0;editable=0;locked=1;connectable=0;" parent="1" vertex="1">
          <mxGeometry x="180" y="-510" width="610" height="510" as="geometry" />
        </mxCell>
        <mxCell id="-Q4MhTV9kitzfaHkZtvb-13" value="" style="rounded=1;whiteSpace=wrap;html=1;" parent="1" vertex="1">
          <mxGeometry x="200" y="-490" width="80" height="30" as="geometry" />
        </mxCell>
        <mxCell id="-Q4MhTV9kitzfaHkZtvb-14" value="" style="rounded=1;whiteSpace=wrap;html=1;" parent="1" vertex="1">
          <mxGeometry x="290" y="-490" width="80" height="30" as="geometry" />
        </mxCell>
        <mxCell id="-Q4MhTV9kitzfaHkZtvb-15" value="" style="rounded=1;whiteSpace=wrap;html=1;" parent="1" vertex="1">
          <mxGeometry x="380" y="-490" width="80" height="30" as="geometry" />
        </mxCell>
        <mxCell id="-Q4MhTV9kitzfaHkZtvb-16" value="" style="rounded=1;whiteSpace=wrap;html=1;" parent="1" vertex="1">
          <mxGeometry x="200" y="-438" width="560" height="20" as="geometry" />
        </mxCell>
        <mxCell id="-Q4MhTV9kitzfaHkZtvb-17" value="" style="rounded=1;whiteSpace=wrap;html=1;" parent="1" vertex="1">
          <mxGeometry x="200" y="-408" width="560" height="20" as="geometry" />
        </mxCell>
        <mxCell id="-Q4MhTV9kitzfaHkZtvb-18" value="" style="rounded=0;whiteSpace=wrap;html=1;" parent="1" vertex="1">
          <mxGeometry x="200" y="-370" width="560" height="162" as="geometry" />
        </mxCell>
        <mxCell id="-Q4MhTV9kitzfaHkZtvb-19" value="Prompt1" style="text;html=1;strokeColor=none;fillColor=none;align=center;verticalAlign=middle;whiteSpace=wrap;rounded=0;" parent="1" vertex="1">
          <mxGeometry x="210" y="-368" width="60" height="30" as="geometry" />
        </mxCell>
        <mxCell id="-Q4MhTV9kitzfaHkZtvb-20" value="Prompt2" style="text;html=1;strokeColor=none;fillColor=none;align=center;verticalAlign=middle;whiteSpace=wrap;rounded=0;" parent="1" vertex="1">
          <mxGeometry x="210" y="-338" width="60" height="30" as="geometry" />
        </mxCell>
        <mxCell id="-Q4MhTV9kitzfaHkZtvb-21" value="Prompt3" style="text;html=1;strokeColor=none;fillColor=none;align=center;verticalAlign=middle;whiteSpace=wrap;rounded=0;" parent="1" vertex="1">
          <mxGeometry x="210" y="-308" width="60" height="30" as="geometry" />
        </mxCell>
        <mxCell id="-Q4MhTV9kitzfaHkZtvb-24" value="" style="rounded=0;whiteSpace=wrap;html=1;" parent="1" vertex="1">
          <mxGeometry x="240" y="-278" width="510" height="60" as="geometry" />
        </mxCell>
        <mxCell id="-Q4MhTV9kitzfaHkZtvb-25" value="Name" style="text;html=1;strokeColor=none;fillColor=none;align=center;verticalAlign=middle;whiteSpace=wrap;rounded=0;" parent="1" vertex="1">
          <mxGeometry x="220" y="-263" width="110" height="8" as="geometry" />
        </mxCell>
        <mxCell id="-Q4MhTV9kitzfaHkZtvb-26" value="tts" style="text;html=1;strokeColor=none;fillColor=none;align=center;verticalAlign=middle;whiteSpace=wrap;rounded=0;" parent="1" vertex="1">
          <mxGeometry x="211" y="-253" width="110" height="8" as="geometry" />
        </mxCell>
        <mxCell id="-Q4MhTV9kitzfaHkZtvb-27" value="Language &amp;lt;DropBox&amp;gt;" style="text;html=1;strokeColor=none;fillColor=none;align=center;verticalAlign=middle;whiteSpace=wrap;rounded=0;" parent="1" vertex="1">
          <mxGeometry x="243" y="-243" width="150" height="8" as="geometry" />
        </mxCell>
        <mxCell id="-Q4MhTV9kitzfaHkZtvb-28" value="" style="rounded=0;whiteSpace=wrap;html=1;" parent="1" vertex="1">
          <mxGeometry x="200" y="-180" width="560" height="170" as="geometry" />
        </mxCell>
        <mxCell id="-Q4MhTV9kitzfaHkZtvb-29" value="Options" style="text;html=1;strokeColor=none;fillColor=none;align=center;verticalAlign=middle;whiteSpace=wrap;rounded=0;" parent="1" vertex="1">
          <mxGeometry x="200" y="-210" width="60" height="30" as="geometry" />
        </mxCell>
        <mxCell id="-Q4MhTV9kitzfaHkZtvb-30" value="User Answer" style="text;html=1;strokeColor=none;fillColor=none;align=center;verticalAlign=middle;whiteSpace=wrap;rounded=0;" parent="1" vertex="1">
          <mxGeometry x="200" y="-180" width="80" height="30" as="geometry" />
        </mxCell>
        <mxCell id="-Q4MhTV9kitzfaHkZtvb-31" value="Actions" style="text;html=1;strokeColor=none;fillColor=none;align=center;verticalAlign=middle;whiteSpace=wrap;rounded=0;" parent="1" vertex="1">
          <mxGeometry x="200" y="-163" width="80" height="30" as="geometry" />
        </mxCell>
        <mxCell id="-Q4MhTV9kitzfaHkZtvb-33" value="" style="rounded=0;whiteSpace=wrap;html=1;" parent="1" vertex="1">
          <mxGeometry x="206" y="-140" width="544" height="120" as="geometry" />
        </mxCell>
        <mxCell id="-Q4MhTV9kitzfaHkZtvb-34" value="Action 1" style="text;html=1;strokeColor=none;fillColor=none;align=center;verticalAlign=middle;whiteSpace=wrap;rounded=0;" parent="1" vertex="1">
          <mxGeometry x="210" y="-140" width="60" height="30" as="geometry" />
        </mxCell>
        <mxCell id="-Q4MhTV9kitzfaHkZtvb-35" value="Action X &amp;gt; Action 1" style="text;html=1;strokeColor=none;fillColor=none;align=center;verticalAlign=middle;whiteSpace=wrap;rounded=0;" parent="1" vertex="1">
          <mxGeometry x="198" y="-463" width="602" height="30" as="geometry" />
        </mxCell>
        <mxCell id="-Q4MhTV9kitzfaHkZtvb-37" value="" style="rounded=0;whiteSpace=wrap;html=1;" parent="1" vertex="1">
          <mxGeometry x="211" y="-110" width="529" height="60" as="geometry" />
        </mxCell>
      </root>
    </mxGraphModel>
  </diagram>
</mxfile>
